<?xml version="1.0" encoding="utf-8"?>
<!-- Generator: Adobe Illustrator 23.0.0, SVG Export Plug-In . SVG Version: 6.00 Build 0)  -->
<svg version="1.1" id="Layer_1" xmlns="http://www.w3.org/2000/svg" xmlns:xlink="http://www.w3.org/1999/xlink" x="0px" y="0px"
	 viewBox="0 0 960 960" style="enable-background:new 0 0 960 960;" xml:space="preserve">
<style type="text/css">
	.st0{fill:#E51373;}
</style>
<g>
	<path class="st0" d="M602.23,940c-16.99-14.71-33.86-26.96-47.94-41.95c-42.76-45.54-93.01-81.39-142.81-117.75
		c-36.66-26.76-74.17-52.41-112.29-76.93c-19.3-12.41-40.95-20.94-61.27-31.75c-71.25-37.91-133.09-87.2-177.67-156.72
		c-30.56-47.65-49.08-99.51-47.78-157.29c1.07-47.63,15.37-91.01,42.66-129.77c27.54-39.12,60.48-71.94,103.64-92.68
		c43.29-20.81,88.7-24.66,135.16-15.73c58.95,11.33,110.99,38.39,158.36,75.47c1.04,0.81,2.21,1.45,4.07,2.65
		c3.47-5.81,6.79-11.36,10.11-16.92c30.67-51.42,68.93-95.41,119.53-127.11c41.8-26.19,87.42-38.7,136.1-32.32
		C815.3,33.45,925.63,96.19,944.9,230.2c8.44,58.73-0.86,115.55-21.61,170.58c-26.77,70.99-67.97,132.48-120.77,185.4
		c-43.85,43.94-82.31,91.96-115.38,144.72c-20.71,33.05-33.68,69.62-46.51,106.28c-10,28.57-20.21,57.05-30.5,85.51
		C608.27,927.81,605.62,932.63,602.23,940z M485.41,349.65c-1.47-0.99-3.7-2.47-5.89-4c-41.98-29.2-84.94-56.58-132.55-75.43
		c-33.28-13.18-67.39-21.85-103.41-18.9c-41.57,3.41-76.63,21.11-105.25,52.06c-3.27,3.53-7.18,11.27-9.35,16.36
		c-6.24,14.58-6.74,26.94-8.57,42.69c-4.84,41.68,4.36,83.03,32.53,113.76c39.42,43.01,90.73,61.2,147.77,65.46
		c33.89,2.53,67.94,2.82,101.85,5.24c42.09,3,83.65,9.29,122.32,28.14c3.98,1.94,6.22,1.05,8.96-2.01
		c26.22-29.29,57.91-51.3,91.73-70c39.61-21.9,80.02-42.29,119.76-63.96c24.63-13.43,48.42-28.84,65.54-51.83
		c32.91-44.17,42.96-94.72,32.95-148.72c-6.94-37.44-29.31-63.83-64.68-76.47c-44.97-16.07-89.18-12.88-131.54,10.06
		c-39.89,21.6-71.44,53.29-98.91,89.17C526.9,289.69,506.87,319.51,485.41,349.65z"/>
</g>
</svg>
